<svg width="878" height="270" viewBox="0 0 878 270" fill="none" xmlns="http://www.w3.org/2000/svg">
<path fill-rule="evenodd" clip-rule="evenodd" d="M68.8084 244.108C68.7561 244.276 68.7359 244.34 68.7478 244.297C63.6089 262.931 44.3371 273.87 25.7032 268.732C7.06927 263.593 -3.87056 244.321 1.26841 225.687C2.32968 221.839 18.5843 168.757 49.5903 115.808C65.1176 89.2923 85.3047 61.1317 110.513 39.2531C135.895 17.2229 168.282 0 207.005 0C246.938 0 276.867 18.5667 299.535 41.8154C320.649 63.4714 337.536 91.3944 351.906 115.157C352.255 115.734 352.603 116.308 352.948 116.88C368.6 142.752 381.655 163.994 396.589 179.311C410.483 193.561 423.429 199.993 439 199.993C454.571 199.993 467.517 193.561 481.411 179.311C496.345 163.994 509.4 142.752 525.052 116.88L526.094 115.157C540.464 91.3944 557.351 63.4714 578.465 41.8154C601.133 18.5667 631.062 0 670.995 0C709.718 0 742.105 17.2229 767.487 39.2531C792.695 61.1317 812.882 89.2923 828.41 115.808C859.416 168.757 875.67 221.839 876.732 225.688C881.871 244.321 870.931 263.593 852.297 268.732C833.663 273.87 814.391 262.931 809.252 244.297C809.264 244.34 809.244 244.276 809.192 244.108C808.688 242.492 805.197 231.282 798.724 214.947C791.644 197.08 781.329 173.932 768.005 151.179C754.548 128.197 738.881 107.111 721.605 92.1162C704.503 77.2734 687.777 69.9977 670.995 69.9977C655.424 69.9977 642.478 76.4302 628.585 90.6803C613.651 105.997 600.595 127.239 584.944 153.111C584.598 153.683 584.25 154.258 583.901 154.835C569.531 178.597 552.645 206.52 531.53 228.176C508.863 251.424 478.933 269.991 439 269.991C399.067 269.991 369.137 251.424 346.47 228.176C325.355 206.52 308.469 178.597 294.098 154.834C293.75 154.257 293.402 153.683 293.056 153.111C277.405 127.239 264.349 105.997 249.415 90.6803C235.522 76.4302 222.576 69.9977 207.005 69.9977C190.224 69.9977 173.497 77.2734 156.395 92.1162C139.119 107.111 123.452 128.197 109.995 151.179C96.6711 173.932 86.3557 197.08 79.276 214.947C72.8039 231.28 69.3126 242.489 68.8084 244.108Z" fill="#6DBDA5"/>
</svg>
