<svg width="163" height="50" viewBox="0 0 163 50" fill="none" xmlns="http://www.w3.org/2000/svg">
<path fill-rule="evenodd" clip-rule="evenodd" d="M12.7423 45.2051C12.7326 45.2362 12.7289 45.2482 12.7311 45.2402C11.7794 48.6909 8.21058 50.7168 4.75985 49.7651C1.30912 48.8135 -0.71677 45.2447 0.234891 41.794C0.431423 41.0814 3.44153 31.2514 9.18339 21.446C12.0588 16.5356 15.7972 11.3207 20.4653 7.26908C25.1657 3.18943 31.1633 0 38.3342 0C45.7292 0 51.2718 3.43828 55.4694 7.74358C59.3795 11.754 62.5066 16.9249 65.1678 21.3254C65.2324 21.4322 65.2968 21.5386 65.3608 21.6444C68.2593 26.4356 70.6769 30.3692 73.4425 33.2057C76.0154 35.8446 78.4127 37.0358 81.2963 37.0358C84.1799 37.0358 86.5772 35.8446 89.1501 33.2057C91.9157 30.3692 94.3333 26.4356 97.2318 21.6444L97.4248 21.3254C100.086 16.9249 103.213 11.754 107.123 7.74358C111.321 3.43828 116.863 0 124.258 0C131.429 0 137.427 3.18943 142.127 7.26908C146.795 11.3207 150.534 16.5356 153.409 21.446C159.151 31.2514 162.161 41.0814 162.358 41.794C163.309 45.2447 161.283 48.8135 157.833 49.7651C154.382 50.7168 150.813 48.6909 149.862 45.2402C149.864 45.2482 149.86 45.2362 149.85 45.2052C149.757 44.9058 149.111 42.8299 147.912 39.8049C146.601 36.4963 144.691 32.2096 142.223 27.9961C139.731 23.7402 136.83 19.8353 133.631 17.0586C130.464 14.3099 127.366 12.9625 124.258 12.9625C121.375 12.9625 118.977 14.1537 116.405 16.7926C113.639 19.6291 111.221 23.5628 108.323 28.3539C108.259 28.4598 108.194 28.5662 108.13 28.6731C105.469 33.0735 102.342 38.2444 98.4315 42.2548C94.2338 46.5601 88.6913 49.9984 81.2963 49.9984C73.9013 49.9984 68.3587 46.5601 64.1611 42.2548C60.251 38.2444 57.1239 33.0735 54.4627 28.673C54.3981 28.5662 54.3337 28.4598 54.2697 28.3539C51.3712 23.5628 48.9536 19.6291 46.188 16.7926C43.6151 14.1537 41.2178 12.9625 38.3342 12.9625C35.2266 12.9625 32.129 14.3099 28.9621 17.0586C25.7628 19.8353 22.8615 23.7402 20.3694 27.9961C17.9021 32.2096 15.9918 36.4963 14.6807 39.8049C13.4822 42.8296 12.8357 44.9053 12.7423 45.2051Z" fill="#6DBDA5" />
</svg>
