<svg width="512" height="512" viewBox="0 0 512 512" fill="none" xmlns="http://www.w3.org/2000/svg">
<path d="M0 204.8C0 91.6921 91.6921 0 204.8 0H307.2C420.308 0 512 91.6921 512 204.8V307.2C512 420.308 420.308 512 307.2 512H204.8C91.6921 512 0 420.308 0 307.2V204.8Z" fill="url(#paint0_linear_17_11)"/>
<path fill-rule="evenodd" clip-rule="evenodd" d="M66.4626 311.867C66.4358 311.953 66.4255 311.986 66.4316 311.964C63.8004 321.505 53.9331 327.106 44.3923 324.475C34.8515 321.844 29.2502 311.977 31.8814 302.436C32.4248 300.465 40.7473 273.287 56.6228 246.176C64.5729 232.599 74.9089 218.18 87.8156 206.978C100.812 195.698 117.394 186.88 137.221 186.88C157.667 186.88 172.991 196.386 184.597 208.29C195.408 219.378 204.054 233.676 211.412 245.842C211.59 246.138 211.768 246.432 211.945 246.725C219.959 259.972 226.643 270.848 234.29 278.69C241.404 285.986 248.032 289.28 256.005 289.28C263.977 289.28 270.605 285.986 277.719 278.69C285.366 270.848 292.05 259.972 300.064 246.725L300.597 245.842C307.955 233.676 316.601 219.378 327.412 208.29C339.018 196.386 354.342 186.88 374.789 186.88C394.615 186.88 411.197 195.698 424.194 206.978C437.1 218.18 447.436 232.599 455.386 246.176C471.262 273.287 479.584 300.465 480.128 302.436C482.759 311.977 477.158 321.844 467.617 324.475C458.076 327.106 448.209 321.505 445.577 311.964C445.584 311.986 445.573 311.953 445.547 311.868C445.289 311.04 443.501 305.3 440.187 296.936C436.562 287.788 431.28 275.936 424.459 264.286C417.568 252.519 409.547 241.722 400.701 234.045C391.945 226.445 383.381 222.72 374.789 222.72C366.816 222.72 360.188 226.014 353.074 233.31C345.427 241.152 338.743 252.028 330.729 265.275C330.552 265.568 330.374 265.862 330.196 266.158C322.838 278.325 314.192 292.622 303.381 303.71C291.775 315.614 276.451 325.12 256.005 325.12C235.558 325.12 220.234 315.614 208.628 303.71C197.817 292.622 189.171 278.325 181.813 266.158C181.635 265.862 181.457 265.568 181.28 265.275C173.266 252.028 166.582 241.152 158.935 233.31C151.821 226.014 145.193 222.72 137.221 222.72C128.628 222.72 120.064 226.445 111.308 234.045C102.462 241.722 94.4409 252.519 87.5504 264.286C80.7286 275.936 75.447 287.788 71.8221 296.936C68.5084 305.299 66.7208 311.038 66.4626 311.867Z" fill="white"/>
<defs>
<linearGradient id="paint0_linear_17_11" x1="256" y1="89.088" x2="256" y2="484.352" gradientUnits="userSpaceOnUse">
<stop stop-color="#6DBDA5" stop-opacity="0.91"/>
<stop offset="1" stop-color="#097178"/>
</linearGradient>
</defs>
</svg>
