<svg width="192" height="192" viewBox="0 0 192 192" fill="none" xmlns="http://www.w3.org/2000/svg">
<path d="M0 76.8C0 34.3845 34.3845 0 76.8 0H115.2C157.615 0 192 34.3845 192 76.8V115.2C192 157.615 157.615 192 115.2 192H76.8C34.3845 192 0 157.615 0 115.2V76.8Z" fill="url(#paint0_linear_17_12)"/>
<path fill-rule="evenodd" clip-rule="evenodd" d="M24.9235 116.95C24.9134 116.982 24.9096 116.995 24.9119 116.987C23.9252 120.564 20.2249 122.665 16.6471 121.678C13.0693 120.691 10.9688 116.991 11.9555 113.413C12.1593 112.675 15.2803 102.482 21.2335 92.3159C24.2148 87.2247 28.0908 81.8177 32.9308 77.6168C37.8044 73.3869 44.0227 70.08 51.4577 70.08C59.125 70.08 64.8716 73.6449 69.2238 78.1088C73.2779 82.2669 76.5202 87.6283 79.2794 92.1909C79.3464 92.3016 79.413 92.4119 79.4795 92.5217C82.4846 97.4893 84.9913 101.568 87.8587 104.509C90.5264 107.245 93.012 108.48 96.0017 108.48C98.9914 108.48 101.477 107.245 104.145 104.509C107.012 101.568 109.519 97.4893 112.524 92.5217L112.724 92.1909C115.483 87.6283 118.725 82.2669 122.78 78.1088C127.132 73.6449 132.878 70.08 140.546 70.08C147.981 70.08 154.199 73.3869 159.073 77.6168C163.913 81.8177 167.789 87.2247 170.77 92.3159C176.723 102.482 179.844 112.675 180.048 113.413C181.035 116.991 178.934 120.691 175.356 121.678C171.778 122.665 168.078 120.564 167.092 116.987C167.094 116.995 167.09 116.982 167.08 116.95C166.983 116.64 166.313 114.488 165.07 111.351C163.711 107.921 161.73 103.476 159.172 99.1073C156.588 94.6947 153.58 90.6459 150.263 87.7669C146.979 84.917 143.768 83.52 140.546 83.52C137.556 83.52 135.07 84.7551 132.403 87.4912C129.535 90.4322 127.029 94.5107 124.023 99.4783C123.957 99.5881 123.89 99.6984 123.823 99.8092C121.064 104.372 117.822 109.733 113.768 113.891C109.416 118.355 103.669 121.92 96.0017 121.92C88.3344 121.92 82.5878 118.355 78.2356 113.891C74.1815 109.733 70.9392 104.372 68.18 99.8092C68.1131 99.6984 68.0464 99.5881 67.9799 99.4783C64.9748 94.5107 62.4681 90.4322 59.6007 87.4912C56.933 84.7551 54.4474 83.52 51.4577 83.52C48.2357 83.52 45.024 84.917 41.7405 87.7669C38.4234 90.6459 35.4153 94.6947 32.8314 99.1073C30.2732 103.476 28.2926 107.921 26.9333 111.351C25.6906 114.487 25.0203 116.639 24.9235 116.95Z" fill="white"/>
<defs>
<linearGradient id="paint0_linear_17_12" x1="96" y1="33.408" x2="96" y2="181.632" gradientUnits="userSpaceOnUse">
<stop stop-color="#6DBDA5" stop-opacity="0.91"/>
<stop offset="1" stop-color="#097178"/>
</linearGradient>
</defs>
</svg>
