<svg width="64" height="64" viewBox="0 0 64 64" fill="none" xmlns="http://www.w3.org/2000/svg">
<path d="M0 25.6C0 11.4615 11.4615 0 25.6 0H38.4C52.5385 0 64 11.4615 64 25.6V38.4C64 52.5385 52.5385 64 38.4 64H25.6C11.4615 64 0 52.5385 0 38.4V25.6Z" fill="url(#paint0_linear_17_13)"/>
<path fill-rule="evenodd" clip-rule="evenodd" d="M8.30782 38.9834C8.30448 38.9941 8.30319 38.9983 8.30395 38.9955C7.97505 40.1881 6.74163 40.8883 5.54904 40.5594C4.35644 40.2305 3.65628 38.9971 3.98518 37.8045C4.0531 37.5582 5.09342 34.1608 7.07785 30.772C8.07161 29.0749 9.36361 27.2726 10.9769 25.8723C12.6015 24.4623 14.6742 23.36 17.1526 23.36C19.7083 23.36 21.6239 24.5483 23.0746 26.0363C24.426 27.4223 25.5067 29.2094 26.4265 30.7303C26.4488 30.7672 26.471 30.804 26.4932 30.8406C27.4949 32.4964 28.3304 33.8559 29.2862 34.8363C30.1755 35.7483 31.004 36.16 32.0006 36.16C32.9971 36.16 33.8257 35.7483 34.7149 34.8363C35.6707 33.8559 36.5063 32.4964 37.508 30.8406L37.5747 30.7303C38.4944 29.2094 39.5752 27.4223 40.9265 26.0363C42.3773 24.5483 44.2928 23.36 46.8486 23.36C49.3269 23.36 51.3997 24.4623 53.0242 25.8723C54.6375 27.2726 55.9295 29.0749 56.9233 30.772C58.9077 34.1608 59.948 37.5582 60.016 37.8045C60.3449 38.9971 59.6447 40.2305 58.4521 40.5594C57.2595 40.8883 56.0261 40.1881 55.6972 38.9955C55.6979 38.9983 55.6967 38.9942 55.6933 38.9834C55.6611 38.88 55.4376 38.1625 55.0234 37.117C54.5703 35.9735 53.9101 34.492 53.0573 33.0358C52.196 31.5649 51.1933 30.2153 50.0876 29.2556C48.9931 28.3057 47.9226 27.84 46.8486 27.84C45.852 27.84 45.0235 28.2517 44.1342 29.1637C43.1784 30.1441 42.3429 31.5036 41.3412 33.1594C41.319 33.196 41.2968 33.2328 41.2744 33.2697C40.3547 34.7906 39.274 36.5777 37.9226 37.9637C36.4719 39.4517 34.5563 40.64 32.0006 40.64C29.4448 40.64 27.5293 39.4517 26.0785 37.9637C24.7272 36.5777 23.6464 34.7906 22.7267 33.2697C22.7044 33.2328 22.6821 33.196 22.66 33.1594C21.6583 31.5036 20.8227 30.1441 19.8669 29.1637C18.9777 28.2517 18.1491 27.84 17.1526 27.84C16.0786 27.84 15.008 28.3057 13.9135 29.2556C12.8078 30.2153 11.8051 31.5649 10.9438 33.0358C10.0911 34.492 9.43087 35.9735 8.97776 37.117C8.56355 38.1624 8.3401 38.8798 8.30782 38.9834Z" fill="white"/>
<defs>
<linearGradient id="paint0_linear_17_13" x1="32" y1="11.136" x2="32" y2="60.544" gradientUnits="userSpaceOnUse">
<stop stop-color="#6DBDA5" stop-opacity="0.91"/>
<stop offset="1" stop-color="#097178"/>
</linearGradient>
</defs>
</svg>
