<svg width="32" height="32" viewBox="0 0 32 32" fill="none" xmlns="http://www.w3.org/2000/svg">
<path d="M0 12.8C0 5.73075 5.73076 0 12.8 0H19.2C26.2692 0 32 5.73076 32 12.8V19.2C32 26.2692 26.2692 32 19.2 32H12.8C5.73075 32 0 26.2692 0 19.2V12.8Z" fill="url(#paint0_linear_17_14)"/>
<path fill-rule="evenodd" clip-rule="evenodd" d="M4.15391 19.4917C4.15224 19.4971 4.15159 19.4991 4.15198 19.4978C3.98753 20.0941 3.37082 20.4441 2.77452 20.2797C2.17822 20.1152 1.82814 19.4985 1.99259 18.9022C2.02655 18.7791 2.54671 17.0804 3.53892 15.386C4.03581 14.5374 4.68181 13.6363 5.48847 12.9361C6.30073 12.2312 7.33712 11.68 8.57628 11.68C9.85416 11.68 10.8119 12.2742 11.5373 13.0181C12.213 13.7112 12.7534 14.6047 13.2132 15.3651C13.2244 15.3836 13.2355 15.402 13.2466 15.4203C13.7474 16.2482 14.1652 16.928 14.6431 17.4181C15.0877 17.8742 15.502 18.08 16.0003 18.08C16.4986 18.08 16.9128 17.8742 17.3575 17.4181C17.8354 16.928 18.2531 16.2482 18.754 15.4203L18.7873 15.3651C19.2472 14.6047 19.7876 13.7112 20.4633 13.0181C21.1886 12.2742 22.1464 11.68 23.4243 11.68C24.6634 11.68 25.6998 12.2312 26.5121 12.9361C27.3188 13.6363 27.9648 14.5374 28.4616 15.386C29.4539 17.0804 29.974 18.7791 30.008 18.9022C30.1724 19.4985 29.8223 20.1152 29.226 20.2797C28.6297 20.4441 28.013 20.0941 27.8486 19.4978C27.849 19.4991 27.8483 19.4971 27.8467 19.4917C27.8305 19.44 27.7188 19.0813 27.5117 18.5585C27.2851 17.9868 26.955 17.246 26.5287 16.5179C26.098 15.7824 25.5967 15.1077 25.0438 14.6278C24.4966 14.1528 23.9613 13.92 23.4243 13.92C22.926 13.92 22.5117 14.1258 22.0671 14.5819C21.5892 15.072 21.1714 15.7518 20.6706 16.5797C20.6595 16.598 20.6484 16.6164 20.6372 16.6349C20.1774 17.3953 19.637 18.2889 18.9613 18.9819C18.2359 19.7258 17.2782 20.32 16.0003 20.32C14.7224 20.32 13.7646 19.7258 13.0393 18.9819C12.3636 18.2889 11.8232 17.3953 11.3633 16.6349C11.3522 16.6164 11.3411 16.598 11.33 16.5797C10.8291 15.7518 10.4113 15.072 9.93345 14.5819C9.48884 14.1258 9.07457 13.92 8.57628 13.92C8.03928 13.92 7.504 14.1528 6.95675 14.6278C6.4039 15.1077 5.90255 15.7824 5.4719 16.5179C5.04554 17.246 4.71544 17.9868 4.48888 18.5585C4.28177 19.0812 4.17005 19.4399 4.15391 19.4917Z" fill="white"/>
<defs>
<linearGradient id="paint0_linear_17_14" x1="16" y1="5.568" x2="16" y2="30.272" gradientUnits="userSpaceOnUse">
<stop stop-color="#6DBDA5" stop-opacity="0.91"/>
<stop offset="1" stop-color="#097178"/>
</linearGradient>
</defs>
</svg>
